<svg xmlns="http://www.w3.org/2000/svg" viewBox="0 0 470 470" style="enable-background:new 0 0 470 470" xml:space="preserve"><path style="fill:#c1e8e6" d="M432.5 302.5v-15a7.5 7.5 0 0 1-7.5-7.5v-19.61c0-6.956-2.963-18.39-6.341-24.47l-40.572-73.03H91.913l-40.571 73.03C47.963 242 45 253.434 45 260.39V280a7.5 7.5 0 0 1-7.5 7.5v15h395zm-155-49.61h-85c-4.143 0-7.5-3.358-7.5-7.5s3.357-7.5 7.5-7.5h85c4.143 0 7.5 3.358 7.5 7.5s-3.357 7.5-7.5 7.5zm-162.348-75h239.695c4.143 0 7.5 3.358 7.5 7.5s-3.357 7.5-7.5 7.5H115.152a7.5 7.5 0 0 1 0-15zm-16.667 30h273.029c4.143 0 7.5 3.358 7.5 7.5s-3.357 7.5-7.5 7.5H98.485a7.5 7.5 0 0 1 0-15z"/><path style="fill:#185f8d" d="M100 125.39v-22.5H87.5c-6.893 0-12.5 5.607-12.5 12.5v20c0 6.893 5.607 12.5 12.5 12.5h20v-15a7.5 7.5 0 0 1-7.5-7.5zM395 135.39v-20c0-6.893-5.607-12.5-12.5-12.5H370v22.5a7.5 7.5 0 0 1-7.5 7.5v15h20c6.893 0 12.5-5.608 12.5-12.5z"/><path style="fill:#fff" d="M332.5 102.89a7.5 7.5 0 0 1-7.5-7.5V17.5H145v77.89a7.5 7.5 0 0 1-7.5 7.5v15h195v-15zM145 132.89h180v15H145z"/><path style="fill:#082947" d="M145 95.39V17.5h180v77.89c0 4.142 3.357 7.5 7.5 7.5s7.5-3.358 7.5-7.5V10a7.5 7.5 0 0 0-7.5-7.5h-195A7.5 7.5 0 0 0 130 10v85.39c0 4.142 3.357 7.5 7.5 7.5s7.5-3.358 7.5-7.5z"/><path style="fill:#082947" d="M45 280v-19.61c0-6.956 2.963-18.39 6.342-24.47l40.571-73.03h286.174l40.572 73.03C422.037 242 425 253.434 425 260.39V280c0 4.142 3.357 7.5 7.5 7.5s7.5-3.358 7.5-7.5v-19.61c0-9.501-3.614-23.45-8.229-31.754l-37.898-68.218c9.502-4.336 16.127-13.92 16.127-25.028v-20c0-15.164-12.337-27.5-27.5-27.5h-20a7.5 7.5 0 0 0-7.135 9.805A7.47 7.47 0 0 0 355 100v25.39c0 4.142 3.357 7.5 7.5 7.5s7.5-3.358 7.5-7.5v-22.5h12.5c6.893 0 12.5 5.607 12.5 12.5v20c0 6.893-5.607 12.5-12.5 12.5H340v-22.5a7.5 7.5 0 0 0-7.5-7.5h-195a7.5 7.5 0 0 0-7.5 7.5v22.5H87.5c-6.893 0-12.5-5.607-12.5-12.5v-20c0-6.893 5.607-12.5 12.5-12.5H100v22.5c0 4.142 3.357 7.5 7.5 7.5s7.5-3.358 7.5-7.5v-30a7.5 7.5 0 0 0-7.5-7.5h-20c-15.163 0-27.5 12.336-27.5 27.5v20c0 11.108 6.625 20.692 16.127 25.028L38.23 228.635C33.614 236.94 30 250.888 30 260.39V280c0 4.142 3.357 7.5 7.5 7.5s7.5-3.357 7.5-7.5zm280-147.11v15H145v-15h180z"/><path style="fill:#082947" d="M115.152 192.89h239.695c4.143 0 7.5-3.358 7.5-7.5s-3.357-7.5-7.5-7.5H115.152a7.5 7.5 0 0 0 0 15zM98.485 222.89h273.029c4.143 0 7.5-3.358 7.5-7.5s-3.357-7.5-7.5-7.5H98.485a7.5 7.5 0 0 0 0 15zM277.5 237.89h-85c-4.143 0-7.5 3.358-7.5 7.5s3.357 7.5 7.5 7.5h85c4.143 0 7.5-3.358 7.5-7.5s-3.357-7.5-7.5-7.5z"/><path style="fill:#6da8d6" d="M15 317.5h45v135H15z"/><path style="fill:#ffcc75" d="M75 317.5h15v135H75z"/><path style="fill:#6da8d6" d="M305 340v-22.5H105v135h200V370a7.5 7.5 0 0 1 7.5-7.5v-15a7.499 7.499 0 0 1-7.5-7.5zm-41.534 59.545a7.49 7.49 0 0 1-5.972 2.956c-1.584 0-3.182-.5-4.539-1.535l-21.707-16.537-21.707 16.537a7.5 7.5 0 0 1-9.091 0l-21.703-16.537-21.701 16.536a7.5 7.5 0 0 1-9.092-11.93l26.247-20a7.501 7.501 0 0 1 9.092 0l21.703 16.537 21.707-16.537a7.498 7.498 0 0 1 9.09 0l26.252 20a7.498 7.498 0 0 1 1.421 10.51z"/><path style="fill:#ffcc75" d="M320 317.5V340a7.5 7.5 0 0 1-7.5 7.5v15a7.5 7.5 0 0 1 7.5 7.5v82.5h15v-135h-15z"/><path style="fill:#6da8d6" d="M410 440c0 4.142-3.357 7.5-7.5 7.5s-7.5-3.358-7.5-7.5V330c0-4.142 3.357-7.5 7.5-7.5s7.5 3.358 7.5 7.5v2.5h45v-15H350v135h105v-15h-45v2.5z"/><path style="fill:#082947" d="m262.045 389.035-26.252-20a7.498 7.498 0 0 0-9.09 0l-21.707 16.537-21.703-16.537a7.503 7.503 0 0 0-9.092 0l-26.247 20a7.5 7.5 0 0 0 9.092 11.93l21.701-16.536 21.703 16.537a7.5 7.5 0 0 0 9.091 0l21.707-16.537 21.707 16.537a7.462 7.462 0 0 0 4.539 1.535 7.49 7.49 0 0 0 5.972-2.956 7.498 7.498 0 0 0-1.421-10.51z"/><path style="fill:#082947" d="M462.5 347.5a7.5 7.5 0 0 0 7.5-7.5v-30a7.5 7.5 0 0 0-7.5-7.5H7.5A7.5 7.5 0 0 0 0 310v150a7.5 7.5 0 0 0 7.5 7.5h455a7.5 7.5 0 0 0 7.5-7.5v-30a7.5 7.5 0 0 0-7.5-7.5H410v-15h52.5c4.143 0 7.5-3.358 7.5-7.5s-3.357-7.5-7.5-7.5H410v-15h52.5c4.143 0 7.5-3.358 7.5-7.5s-3.357-7.5-7.5-7.5H410v-15h52.5zM320 452.5V370c0-4.142-3.357-7.5-7.5-7.5s-7.5 3.358-7.5 7.5v82.5H105v-135h200V340c0 4.142 3.357 7.5 7.5 7.5s7.5-3.358 7.5-7.5v-22.5h15v135h-15zm-245 0v-135h15v135H75zm-60-135h45v135H15v-135zm440 135H350v-135h105v15h-45V330c0-4.142-3.357-7.5-7.5-7.5s-7.5 3.358-7.5 7.5v110c0 4.142 3.357 7.5 7.5 7.5s7.5-3.358 7.5-7.5v-2.5h45v15z"/></svg>